<svg preserveAspectRatio="none" width="100%" height="100%" overflow="visible" style="display: block;" viewBox="0 0 24 24" fill="none" xmlns="http://www.w3.org/2000/svg">
<g id="Icon">
<path id="Union" d="M3.86035 8.39116C3.92698 8.48667 4.00169 8.57839 4.08691 8.66362L5.50098 10.0777V14.2496C5.50098 14.6638 5.83676 14.9996 6.25098 14.9996H9.27637C10.0055 14.9998 10.7052 15.2896 11.2207 15.8052L14.2207 18.8052C14.24 18.8246 14.2609 18.8413 14.2812 18.858L16.0869 20.6636C16.0897 20.6664 16.0929 20.6687 16.0957 20.6714C15.0948 21.2284 13.7639 21.1767 12.8066 20.2193L9.80664 17.2193C9.66618 17.0788 9.475 16.9998 9.27637 16.9996H6.25098C4.73219 16.9996 3.5 15.7683 3.5 14.2496V9.74955C3.50008 9.25526 3.63198 8.79197 3.86035 8.39116ZM12.8066 3.77983C14.5391 2.04881 17.5006 3.27592 17.501 5.72514V16.3355L19.458 18.2925C19.8484 18.6829 19.8481 19.316 19.458 19.7066C19.0675 20.0971 18.4345 20.0971 18.0439 19.7066L4.79395 6.45658C4.40342 6.06606 4.40342 5.43305 4.79395 5.04252C5.18451 4.65247 5.81764 4.65215 6.20801 5.04252L8.16504 6.99955H9.27637C9.47502 6.99937 9.66615 6.9203 9.80664 6.77983L12.8066 3.77983ZM15.501 5.72514C15.5006 5.05753 14.6931 4.72327 14.2207 5.19487L11.2207 8.19389C10.8921 8.52246 10.487 8.75489 10.0488 8.88334L15.501 14.3355V5.72514Z" fill="var(--fill-0, black)"/>
</g>
</svg>
