<svg preserveAspectRatio="none" width="100%" height="100%" overflow="visible" style="display: block;" viewBox="0 0 24 24" fill="none" xmlns="http://www.w3.org/2000/svg">
<g id="Icon">
<path id="Union" d="M12 2C12.5523 2 13 2.44772 13 3V4C13 4.02136 12.9974 4.04245 12.9961 4.06348C13.7351 4.15529 14.4432 4.34578 15.1055 4.625C15.1143 4.60727 15.1238 4.58967 15.1338 4.57227L15.6338 3.70605C15.9099 3.22776 16.5217 3.0637 17 3.33984C17.4783 3.616 17.6423 4.22778 17.3662 4.70605L16.8662 5.57227C16.8557 5.59054 16.8435 5.60765 16.832 5.625C17.4136 6.06646 17.9325 6.58555 18.374 7.16699C18.3914 7.15542 18.4094 7.14439 18.4277 7.13379L19.2939 6.63379C19.7722 6.35765 20.384 6.52174 20.6602 7C20.9363 7.47829 20.7722 8.09007 20.2939 8.36621L19.4277 8.86621C19.4102 8.87632 19.3919 8.88462 19.374 8.89355C19.6534 9.55587 19.8436 10.2639 19.9355 11.0029C19.9569 11.0016 19.9783 11 20 11H21C21.5523 11 22 11.4477 22 12C22 12.5523 21.5523 13 21 13H20C19.9783 13 19.9569 12.9975 19.9355 12.9961C19.8437 13.7352 19.6533 14.4431 19.374 15.1055C19.392 15.1145 19.4101 15.1236 19.4277 15.1338L20.2939 15.6338C20.7722 15.9099 20.9363 16.5217 20.6602 17C20.384 17.4783 19.7722 17.6423 19.2939 17.3662L18.4277 16.8662C18.4092 16.8555 18.3916 16.8437 18.374 16.832C17.9325 17.4136 17.4136 17.9325 16.832 18.374C16.8437 18.3916 16.8555 18.4092 16.8662 18.4277L17.3662 19.2939C17.6423 19.7722 17.4783 20.384 17 20.6602C16.5217 20.9363 15.9099 20.7722 15.6338 20.2939L15.1338 19.4277C15.1236 19.4101 15.1145 19.392 15.1055 19.374C14.4431 19.6533 13.7352 19.8437 12.9961 19.9355C12.9975 19.9569 13 19.9783 13 20V21C13 21.5523 12.5523 22 12 22C11.4477 22 11 21.5523 11 21V20C11 19.9783 11.0016 19.9569 11.0029 19.9355C10.2639 19.8436 9.55587 19.6534 8.89355 19.374C8.88462 19.3919 8.87632 19.4102 8.86621 19.4277L8.36621 20.2939C8.09007 20.7722 7.47829 20.9363 7 20.6602C6.52174 20.384 6.35765 19.7722 6.63379 19.2939L7.13379 18.4277C7.14439 18.4094 7.15542 18.3914 7.16699 18.374C6.58555 17.9325 6.06646 17.4136 5.625 16.832C5.60765 16.8435 5.59054 16.8557 5.57227 16.8662L4.70605 17.3662C4.22778 17.6423 3.616 17.4783 3.33984 17C3.0637 16.5217 3.22776 15.9099 3.70605 15.6338L4.57227 15.1338C4.58967 15.1238 4.60727 15.1143 4.625 15.1055C4.34578 14.4432 4.15529 13.7351 4.06348 12.9961C4.04245 12.9974 4.02136 13 4 13H3C2.44772 13 2 12.5523 2 12C2 11.4477 2.44772 11 3 11H4C4.02134 11 4.04247 11.0016 4.06348 11.0029C4.15537 10.2639 4.34571 9.5558 4.625 8.89355C4.6074 8.88473 4.58954 8.87617 4.57227 8.86621L3.70605 8.36621C3.22776 8.09007 3.0637 7.47829 3.33984 7C3.616 6.52174 4.22778 6.35766 4.70605 6.63379L5.57227 7.13379C5.59038 7.14426 5.60779 7.15559 5.625 7.16699C6.06648 6.58556 6.58556 6.06648 7.16699 5.625C7.15559 5.60779 7.14426 5.59038 7.13379 5.57227L6.63379 4.70605C6.35766 4.22778 6.52174 3.616 7 3.33984C7.47829 3.0637 8.09007 3.22776 8.36621 3.70605L8.86621 4.57227C8.87617 4.58954 8.88473 4.6074 8.89355 4.625C9.5558 4.34571 10.2639 4.15537 11.0029 4.06348C11.0016 4.04247 11 4.02134 11 4V3C11 2.44772 11.4477 2 12 2ZM12.582 13L9.94238 17.6377C10.5842 17.872 11.2771 18 12 18C14.9729 18 17.4388 15.8376 17.915 13H12.582ZM8.2041 7.35254C6.85858 8.45283 6 10.1263 6 12C6 13.8738 6.85949 15.5462 8.20508 16.6465L10.8486 12L8.2041 7.35254ZM12 6C11.2768 6 10.5834 6.12781 9.94141 6.3623L12.5811 11H17.915C17.4388 8.16245 14.9729 6 12 6Z" fill="var(--fill-0, black)"/>
</g>
</svg>
