<svg width="360" height="360" viewBox="0 0 360 360" fill="none" xmlns="http://www.w3.org/2000/svg">
<rect width="360" height="360" fill="#333333"/>
<rect width="4320" height="2328" transform="translate(-620 -1548)" fill="black"/>
<g clip-path="url(#clip0_1_14)">
<rect x="-460" y="-180" width="1280" height="800" rx="48" fill="#F7EDF0"/>
<path d="M-28.7585 -21.624C-38.461 -48.1021 -63.8846 -67 -93.7249 -67C-116.583 -67 -136.848 -55.909 -149.443 -38.8195C-159.031 -52.0679 -174.62 -60.689 -192.224 -60.6893C-221.37 -60.6888 -244.999 -37.0596 -245 -7.91302C-245 4.27213 -240.87 15.4928 -233.934 24.4258L27.2136 24.4258C27.2136 -1.49005 6.20178 -22.5019 -19.714 -22.5019C-22.8083 -22.5018 -25.8315 -22.1956 -28.7585 -21.624Z" fill="url(#paint0_linear_1_14)"/>
<path fill-rule="evenodd" clip-rule="evenodd" d="M259.054 204.851C261.485 216.893 263.894 229.352 264.761 242.206C265.629 255.075 264.702 267.309 264.305 279.457C264.258 280.841 264.21 282.126 264.173 283.52C264.171 283.587 264.166 283.654 264.162 283.721C264.183 283.862 264.194 284.006 264.19 284.154C264.133 286.117 264.191 287.845 264.258 289.453C264.323 291.029 264.402 292.579 264.364 294.032C264.284 297.083 263.687 299.921 261.467 303.008C260.64 304.158 259.012 304.448 257.829 303.656C257.4 303.368 257.092 302.977 256.908 302.541C256.268 303.105 255.557 303.61 254.775 304.035C253.529 304.713 251.986 304.239 251.331 302.977C251.141 302.612 251.051 302.221 251.042 301.833C250.794 301.993 250.537 302.146 250.272 302.29C249.027 302.967 247.486 302.493 246.83 301.231C246.175 299.97 246.654 298.397 247.9 297.72C249.612 296.789 250.799 295.126 251.466 293.238C251.991 291.754 252.118 290.353 252.035 289.382C251.593 289.363 251.355 289.458 251.233 289.53C250.926 289.711 250.303 290.344 249.785 292.445C249.442 293.836 248.055 294.692 246.69 294.355C245.325 294.017 244.497 292.614 244.84 291.222C245.468 288.674 246.568 286.305 248.704 285.046C249.164 284.775 249.637 284.576 250.118 284.438C250.106 284.366 250.093 284.293 250.084 284.22C249.919 282.826 249.755 281.543 249.586 280.162C248.044 268.03 246.548 255.97 244.703 244.689C242.878 233.408 240.153 222.067 237.054 210.548C236.706 209.255 236.366 208.021 236.002 206.7C235.15 203.632 235.513 200.377 237.072 197.635C238.627 194.895 241.25 192.891 244.303 192.083C247.356 191.275 250.572 191.732 253.181 193.37C255.794 195.007 257.587 197.691 258.228 200.815C258.513 202.196 258.777 203.492 259.054 204.851Z" fill="white"/>
<path d="M209.178 261.599C209.366 259.12 207.329 257.041 204.847 257.179L194.724 257.742C187.673 258.133 182.388 264.349 183.135 271.371L184.333 282.633L187.104 321.271L205.303 320.39L206.447 297.548L209.178 261.599Z" fill="white"/>
<path d="M213.647 322.416C213.647 321.181 212.943 320.054 211.833 319.513L204.178 315.785L186.962 319.089L187.037 322.624C187.073 324.302 188.444 325.644 190.122 325.644L210.419 325.644C212.202 325.644 213.647 324.198 213.647 322.416Z" fill="white"/>
<path d="M150.69 261.726C150.501 259.246 152.538 257.168 155.02 257.306L165.143 257.868C172.194 258.26 177.479 264.476 176.732 271.498L175.534 282.76L172.763 321.398L154.564 320.517L153.42 297.674L150.69 261.726Z" fill="white"/>
<path d="M146.22 322.542C146.22 321.307 146.924 320.181 148.034 319.64L155.689 315.911L172.905 319.216L172.83 322.75C172.794 324.429 171.423 325.77 169.745 325.77L149.448 325.77C147.665 325.77 146.22 324.325 146.22 322.542Z" fill="white"/>
<path d="M219.736 68.2009C219.736 69.8032 218.915 70.9125 218.341 71.4841C217.776 72.0474 217.156 72.4016 216.72 72.6169C215.831 73.0566 214.778 73.3682 213.775 73.6082C211.703 74.1041 208.876 74.5151 205.584 74.8484C198.95 75.52 189.883 75.9275 179.936 75.9275C169.989 75.9275 160.923 75.52 154.289 74.8484C150.997 74.5151 148.17 74.1041 146.097 73.6082C145.094 73.3681 144.04 73.0568 143.151 72.6169C142.716 72.4016 142.096 72.0472 141.531 71.4841C140.957 70.9125 140.136 69.8032 140.136 68.2009L140.136 67.9148L140.175 67.6326L143.025 47.2058C143.189 45.7322 144.045 44.7707 144.541 44.3289C145.108 43.8226 145.713 43.5187 146.111 43.3425C146.938 42.9766 147.909 42.719 148.828 42.5222C150.731 42.1144 153.328 41.777 156.354 41.5027C162.453 40.9499 170.789 40.614 179.936 40.614C189.084 40.614 197.42 40.9499 203.518 41.5027C206.545 41.777 209.141 42.1144 211.045 42.5222C211.963 42.719 212.935 42.9766 213.761 43.3425C214.159 43.5187 214.764 43.8226 215.332 44.3289C215.827 44.7707 216.684 45.7323 216.847 47.2058L219.696 67.6326L219.736 67.9148L219.736 68.2009Z" stroke="white" stroke-width="8.22857" stroke-miterlimit="10" stroke-linecap="round"/>
<path fill-rule="evenodd" clip-rule="evenodd" d="M178.571 63.0686L179.932 63.0646L180 63.0646L181.815 63.0696L185.237 63.0897C220.379 63.3879 248.408 66.624 250.788 70.6704C251.843 72.0379 252.37 74.8724 252.708 77.9548C252.708 77.9605 252.709 77.9665 252.71 77.9725C252.71 77.9801 252.711 77.9877 252.712 77.9949C253.287 82.867 252.809 89.9207 251.951 102.589C251.896 103.401 251.84 104.236 251.782 105.094C250.836 119.105 249.589 138.881 249.067 167.6C248.588 193.225 249.404 211.138 250.011 224.327C250.627 237.72 250.969 245.603 249.797 251.887L249.777 252.009C248.494 260.081 243.192 263.103 238.287 264.581L238.19 264.611C235.459 265.506 227.404 266.753 216.435 267.686C205.658 268.602 192.558 269.177 180.04 268.874L179.836 268.874C167.316 269.178 154.216 268.603 143.438 267.687C132.468 266.755 124.411 265.507 121.679 264.612L121.583 264.582L121.122 264.44C116.35 262.911 111.335 259.829 110.093 252.009L110.073 251.887L109.966 251.292C108.921 245.104 109.262 237.301 109.859 224.327C110.428 211.963 111.181 195.447 110.878 172.316L110.803 167.6C110.28 138.881 109.033 119.105 108.088 105.094C108.03 104.24 107.974 103.409 107.919 102.601C107.089 90.347 106.615 83.3446 107.105 78.4891L107.159 77.9949L107.164 77.9548C107.532 74.5928 107.979 71.6343 109.229 70.4504C112.543 66.4237 141.3 63.2497 176.819 63.0736C177.218 63.0712 177.617 63.0705 178.018 63.0698C178.202 63.0694 178.387 63.0691 178.571 63.0686Z" fill="#E6E6E6"/>
<path fill-rule="evenodd" clip-rule="evenodd" d="M178.571 63.0686L179.932 63.0646L180 63.0646L181.815 63.0696L185.237 63.0897C220.379 63.3879 248.408 66.624 250.788 70.6704C251.843 72.0379 252.37 74.8724 252.708 77.9548C252.708 77.9605 252.709 77.9665 252.71 77.9725C252.71 77.9801 252.711 77.9877 252.712 77.9949C253.287 82.867 252.809 89.9207 251.951 102.589C251.896 103.401 251.84 104.236 251.782 105.094C250.836 119.105 249.589 138.881 249.067 167.6C248.588 193.225 249.404 211.138 250.011 224.327C250.627 237.72 250.969 245.603 249.797 251.887L249.777 252.009C248.494 260.081 243.192 263.103 238.287 264.581L238.19 264.611C235.459 265.506 227.404 266.753 216.435 267.686C205.658 268.602 192.558 269.177 180.04 268.874L179.836 268.874C167.316 269.178 154.216 268.603 143.438 267.687C132.468 266.755 124.411 265.507 121.679 264.612L121.583 264.582L121.122 264.44C116.35 262.911 111.335 259.829 110.093 252.009L110.073 251.887L109.966 251.292C108.921 245.104 109.262 237.301 109.859 224.327C110.428 211.963 111.181 195.447 110.878 172.316L110.803 167.6C110.28 138.881 109.033 119.105 108.088 105.094C108.03 104.24 107.974 103.409 107.919 102.601C107.089 90.347 106.615 83.3446 107.105 78.4891L107.159 77.9949L107.164 77.9548C107.532 74.5928 107.979 71.6343 109.229 70.4504C112.543 66.4237 141.3 63.2497 176.819 63.0736C177.218 63.0712 177.617 63.0705 178.018 63.0698C178.202 63.0694 178.387 63.0691 178.571 63.0686Z" fill="url(#paint1_linear_1_14)"/>
<path d="M180 58.9513C180.616 58.9513 181.234 58.9541 181.829 58.9562L181.828 58.9572C200.294 59.0124 217.076 59.8713 229.605 61.256C235.854 61.9465 241.151 62.7793 245.108 63.7384C247.075 64.2152 248.842 64.7538 250.274 65.38C251.418 65.8803 253.126 66.7551 254.17 68.3273C255.159 69.686 255.688 71.3465 256.016 72.7032C256.379 74.206 256.617 75.8708 256.793 77.4689L256.794 77.4718C256.794 77.4737 256.794 77.4771 256.794 77.4806C256.795 77.4875 256.797 77.4996 256.798 77.5138L256.857 78.0529C257.428 83.7034 256.802 91.8114 255.887 105.372C254.944 119.348 253.701 139.05 253.18 167.677L253.18 167.679C252.704 193.169 253.515 210.976 254.121 224.139C254.725 237.272 255.118 245.715 253.854 252.568L253.855 252.568L253.835 252.691C253.052 257.571 250.99 261.183 248.19 263.783C245.468 266.311 242.276 267.672 239.515 268.508L239.516 268.509L239.42 268.539L239.419 268.538C237.671 269.103 234.677 269.673 230.992 270.207C227.17 270.761 222.332 271.315 216.784 271.787C205.903 272.712 192.671 273.294 179.99 272.989L179.886 272.989C167.205 273.294 153.972 272.713 143.089 271.788C137.54 271.316 132.7 270.762 128.878 270.208C125.193 269.674 122.198 269.104 120.45 268.539L120.353 268.51L120.353 268.509L119.901 268.369L119.884 268.363L119.867 268.359C117.141 267.485 114.047 266.078 111.424 263.542C108.748 260.955 106.793 257.413 106.036 252.692L106.023 252.613L105.917 252.019L105.913 251.998L105.91 251.979C104.774 245.251 105.16 236.918 105.749 224.139C106.317 211.798 107.065 195.383 106.764 172.383L106.689 167.677L106.584 162.413C106.014 136.61 104.867 118.475 103.983 105.372C103.039 91.3739 102.403 83.1862 103.073 77.5138L103.073 77.5118C103.074 77.4981 103.076 77.4861 103.077 77.4796C103.077 77.4764 103.077 77.4734 103.078 77.4718L103.077 77.4777C103.076 77.4836 103.075 77.4943 103.074 77.5079C103.258 75.826 103.484 74.0135 103.866 72.4259C104.194 71.0601 104.798 69.106 106.212 67.6525C107.314 66.418 108.863 65.6636 110.09 65.1691C111.535 64.5871 113.294 64.0755 115.259 63.6173C119.204 62.6978 124.401 61.8964 130.5 61.2286C142.721 59.8904 158.937 59.0497 176.794 58.9611C177.385 58.9575 177.99 58.9567 178.56 58.9552L178.562 58.9552C178.982 58.9543 179.479 58.9513 179.932 58.9513L180 58.9513Z" stroke="white" stroke-width="8.22857" stroke-miterlimit="10" stroke-linecap="round"/>
<ellipse cx="179.931" cy="71.2296" rx="71.0212" ry="8.16402" fill="#CACACA"/>
<ellipse cx="179.932" cy="104.908" rx="71.8583" ry="8.26025" fill="#AAD23A"/>
<path d="M251.783 105.095C250.837 119.106 249.59 138.882 249.068 167.601C248.589 193.226 249.405 211.14 250.012 224.328C250.628 237.721 250.97 245.604 249.798 251.888L249.778 252.01C248.495 260.082 243.193 263.104 238.288 264.582L238.191 264.612C235.46 265.507 227.404 266.754 216.436 267.687C205.659 268.603 192.559 269.178 180.041 268.875H179.837C167.318 269.178 154.217 268.604 143.439 267.688C132.469 266.756 124.412 265.508 121.68 264.613L121.584 264.583L121.123 264.441C116.351 262.912 111.336 259.83 110.094 252.01L110.074 251.888L109.967 251.293C108.922 245.105 109.263 237.302 109.86 224.328C110.429 211.964 111.182 195.447 110.879 172.317L110.804 167.601C110.281 138.882 109.034 119.106 108.089 105.095C108.088 105.073 108.085 105.051 108.084 105.029C108.65 109.535 140.6 113.168 179.932 113.168C219.411 113.168 251.452 109.508 251.786 104.979L251.79 104.977C251.787 105.016 251.785 105.056 251.783 105.095Z" fill="#AAD532"/>
<path d="M251.783 105.095C250.837 119.106 249.59 138.882 249.068 167.601C248.589 193.226 249.405 211.14 250.012 224.328C250.628 237.721 250.97 245.604 249.798 251.888L249.778 252.01C248.495 260.082 243.193 263.104 238.288 264.582L238.191 264.612C235.46 265.507 227.404 266.754 216.436 267.687C205.659 268.603 192.559 269.178 180.041 268.875H179.837C167.318 269.178 154.217 268.604 143.439 267.688C132.469 266.756 124.412 265.508 121.68 264.613L121.584 264.583L121.123 264.441C116.351 262.912 111.336 259.83 110.094 252.01L110.074 251.888L109.967 251.293C108.922 245.105 109.263 237.302 109.86 224.328C110.429 211.964 111.182 195.447 110.879 172.317L110.804 167.601C110.281 138.882 109.034 119.106 108.089 105.095C108.088 105.073 108.085 105.051 108.084 105.029C108.65 109.535 140.6 113.168 179.932 113.168C219.411 113.168 251.452 109.508 251.786 104.979L251.79 104.977C251.787 105.016 251.785 105.056 251.783 105.095Z" fill="url(#paint2_linear_1_14)"/>
<path fill-rule="evenodd" clip-rule="evenodd" d="M147.107 47.7037C147.111 46.0605 161.807 44.7285 179.934 44.7285C198.062 44.7285 212.758 46.0605 212.761 47.7037L215.62 68.2008C215.62 70.1957 199.643 71.8139 179.934 71.8139C160.226 71.8139 144.249 70.1957 144.249 68.2008L147.107 47.7037Z" fill="#E6E6E6"/>
<path fill-rule="evenodd" clip-rule="evenodd" d="M147.107 47.7037C147.111 46.0605 161.807 44.7285 179.934 44.7285C198.062 44.7285 212.758 46.0605 212.761 47.7037L215.62 68.2008C215.62 70.1957 199.643 71.8139 179.934 71.8139C160.226 71.8139 144.249 70.1957 144.249 68.2008L147.107 47.7037Z" fill="url(#paint3_linear_1_14)"/>
<ellipse cx="179.932" cy="47.7041" rx="32.8265" ry="2.97557" fill="#CACACA"/>
<path opacity="0.3" d="M149.706 55.8203L148.992 62.1565C148.801 63.8462 149.977 65.3797 151.627 65.593L157.893 66.4031C159.638 66.6287 161.201 65.2921 161.294 63.4953L161.632 56.9263C161.717 55.2662 160.507 53.8304 158.89 53.6718L153 53.0945C151.359 52.9337 149.895 54.1448 149.706 55.8203Z" fill="url(#paint4_linear_1_14)"/>
<path opacity="0.3" d="M140.205 86.9083C131.935 86.1754 124.529 85.2139 118.302 84.0751C116.386 83.7249 114.599 85.1655 114.668 87.1116C114.812 91.2018 115.199 96.8407 115.754 105.068C116.631 118.075 117.774 136.144 118.341 161.822L118.446 167.06L118.447 167.068L118.447 167.078L118.521 171.724L118.521 171.748C118.822 194.788 118.072 211.259 117.509 223.483C116.904 236.638 116.664 243.242 117.502 248.232C118.074 253.045 120.355 253.932 123.664 255.021C125.198 255.523 131.734 256.588 140.968 257.473C142.736 257.643 144.269 256.272 144.329 254.497C144.46 250.704 144.654 246.336 144.889 241.236C145.645 224.815 146.652 202.689 146.247 171.737L146.247 171.705L146.148 165.465L146.148 165.463C146.148 165.455 146.148 165.447 146.146 165.439L146.006 158.402C145.349 128.664 144.116 106.523 143.033 89.7873C142.935 88.2603 141.729 87.0434 140.205 86.9083Z" fill="url(#paint5_linear_1_14)"/>
<path fill-rule="evenodd" clip-rule="evenodd" d="M189.776 176.768C190.372 176.507 191.047 176.596 191.496 177.02C191.981 177.479 192.06 178.199 191.669 178.808C190.702 180.316 189.003 181.829 186.924 182.965C184.838 184.104 182.315 184.892 179.669 184.892C174.657 184.892 170.166 181.608 168.024 179.063C167.563 178.515 167.498 177.763 167.972 177.226C168.412 176.728 169.125 176.638 169.74 176.904C176.071 179.639 183.254 179.622 189.572 176.857L189.776 176.768Z" fill="#323232"/>
<circle cx="149.803" cy="155.121" r="19.6714" fill="white"/>
<path d="M130.368 149.079C128.619 150.046 122.892 148.747 119.866 146.847C119.127 146.382 119.468 145.481 120.324 145.423C123.905 145.177 129.455 144.388 135.763 140.918C134.688 141.399 132.865 142.216 135.777 140.91C139.547 139.218 144.944 136.797 136.377 140.642C136.377 140.642 138.364 143.605 135.142 144.829C131.92 146.053 130.368 149.079 130.368 149.079Z" fill="#323232"/>
<path d="M133.247 143.376C131.365 144.048 125.922 141.843 123.242 139.48C122.587 138.903 123.069 138.069 123.923 138.149C127.497 138.484 133.102 138.6 139.886 136.19C138.748 136.493 136.817 137.005 139.901 136.185C143.895 135.123 149.612 133.603 140.537 136.018C140.537 136.018 142.02 139.262 138.643 139.951C135.266 140.64 133.247 143.376 133.247 143.376Z" fill="#323232"/>
<ellipse cx="14.7453" cy="14.3054" rx="14.7453" ry="14.3054" transform="matrix(0.985514 0.169593 -0.189398 0.9819 139.911 138.721)" fill="#747474"/>
<path d="M166.485 154.203C166.518 154.689 166.525 155.18 166.506 155.675L164.857 155.642C164.852 155.765 164.846 155.889 164.837 156.013L166.483 156.095C166.449 156.581 166.389 157.07 166.302 157.561L164.677 157.306C164.667 157.367 164.655 157.429 164.643 157.49C164.631 157.552 164.619 157.613 164.606 157.674L166.222 157.976C166.12 158.464 165.994 158.941 165.844 159.407L164.273 158.937C164.235 159.056 164.195 159.174 164.153 159.29L165.708 159.809C165.542 160.278 165.352 160.735 165.14 161.179L163.651 160.499C163.597 160.611 163.542 160.723 163.485 160.834L164.951 161.56C164.722 162.003 164.47 162.43 164.198 162.843L162.822 161.966C162.753 162.071 162.683 162.174 162.611 162.276L163.959 163.195C163.673 163.603 163.367 163.995 163.042 164.37L161.8 163.314C161.718 163.409 161.634 163.502 161.549 163.595L162.757 164.687C162.42 165.054 162.064 165.402 161.692 165.732L160.606 164.519C160.512 164.603 160.417 164.685 160.32 164.766L161.369 166.011C160.987 166.33 160.589 166.63 160.177 166.91L159.262 165.564C159.158 165.635 159.053 165.704 158.947 165.772L159.821 167.146C159.403 167.414 158.97 167.66 158.525 167.886L157.796 166.43C157.683 166.487 157.569 166.543 157.455 166.597L158.141 168.074C157.693 168.286 157.233 168.477 156.764 168.645L156.23 167.105C156.111 167.147 155.991 167.189 155.871 167.228L156.36 168.783C155.89 168.937 155.41 169.068 154.923 169.176L154.593 167.578C154.47 167.605 154.346 167.63 154.222 167.654L154.507 169.263C154.022 169.356 153.531 169.427 153.034 169.473L152.913 167.841C152.787 167.852 152.661 167.862 152.535 167.87L152.611 169.505C152.12 169.536 151.626 169.545 151.127 169.529L151.213 167.891C151.088 167.887 150.962 167.881 150.836 167.874L150.704 169.508C150.215 169.479 149.724 169.426 149.232 169.348L149.522 167.73C149.46 167.72 149.398 167.709 149.335 167.699C149.273 167.688 149.211 167.677 149.149 167.666L148.815 169.277C148.326 169.185 147.846 169.071 147.378 168.936L147.866 167.363C147.745 167.328 147.625 167.291 147.506 167.253L146.975 168.814C146.503 168.664 146.043 168.49 145.595 168.297L146.277 166.793C146.163 166.743 146.049 166.693 145.936 166.64L145.212 168.126C144.764 167.918 144.331 167.689 143.912 167.44L144.779 166.029C144.672 165.965 144.566 165.901 144.462 165.835L143.555 167.22C143.14 166.957 142.74 166.674 142.357 166.374L143.396 165.081C143.298 165.005 143.201 164.926 143.106 164.846L142.031 166.11C141.654 165.796 141.295 165.465 140.955 165.117L142.15 163.964C142.063 163.875 141.978 163.785 141.894 163.694L140.666 164.813C140.334 164.453 140.021 164.079 139.729 163.689L141.062 162.694C140.988 162.595 140.915 162.495 140.844 162.394L139.484 163.349C139.203 162.95 138.943 162.536 138.705 162.11L140.153 161.296C140.092 161.188 140.034 161.079 139.977 160.969L138.506 161.742C138.281 161.309 138.078 160.865 137.899 160.41L139.44 159.79C139.395 159.675 139.351 159.56 139.31 159.444L137.752 160.018C137.588 159.559 137.448 159.09 137.333 158.613L138.938 158.203C138.909 158.083 138.882 157.963 138.857 157.842L137.24 158.204C137.14 157.727 137.064 157.242 137.016 156.752L138.659 156.562C138.647 156.439 138.637 156.316 138.628 156.193L136.98 156.333C136.947 155.847 136.94 155.356 136.96 154.861L138.609 154.894C138.614 154.771 138.621 154.648 138.63 154.525L136.982 154.44C137.016 153.954 137.076 153.466 137.164 152.975L138.79 153.231L138.823 153.047C138.835 152.986 138.848 152.924 138.861 152.863L137.244 152.56C137.345 152.072 137.472 151.594 137.621 151.128L139.194 151.6C139.232 151.481 139.271 151.363 139.313 151.246L137.757 150.728C137.886 150.364 138.029 150.008 138.186 149.66L138.326 149.357L139.815 150.038C139.869 149.926 139.925 149.814 139.982 149.703L138.516 148.976C138.744 148.533 138.996 148.105 139.267 147.692L140.645 148.571C140.714 148.467 140.784 148.362 140.856 148.26L139.507 147.34C139.793 146.933 140.099 146.54 140.424 146.166L141.667 147.223C141.749 147.129 141.833 147.035 141.918 146.943L140.708 145.848C141.045 145.482 141.401 145.133 141.774 144.803L142.861 146.017C142.955 145.934 143.051 145.851 143.147 145.77L142.097 144.524C142.478 144.205 142.876 143.905 143.289 143.625L144.204 144.972C144.308 144.901 144.414 144.832 144.521 144.764L143.645 143.39C144.049 143.132 144.465 142.893 144.893 142.674L144.942 142.649L145.672 144.106C145.784 144.049 145.898 143.993 146.012 143.939L145.325 142.461C145.773 142.249 146.233 142.059 146.703 141.891L147.237 143.432C147.356 143.389 147.475 143.348 147.595 143.309L147.106 141.753C147.577 141.599 148.056 141.467 148.543 141.359L148.874 142.959C148.997 142.932 149.12 142.906 149.244 142.882L148.96 141.273C149.444 141.18 149.935 141.11 150.432 141.064L150.554 142.697C150.68 142.685 150.805 142.675 150.931 142.666L150.855 141.031C151.345 140.999 151.841 140.991 152.339 141.007L152.253 142.646C152.378 142.65 152.504 142.656 152.63 142.664L152.762 141.028C153.25 141.057 153.741 141.11 154.233 141.188L153.944 142.807C154.006 142.817 154.069 142.827 154.131 142.838C154.193 142.848 154.255 142.86 154.317 142.872L154.65 141.26C155.14 141.351 155.619 141.465 156.087 141.6L155.6 143.175C155.721 143.209 155.841 143.246 155.96 143.284L156.491 141.722C156.963 141.873 157.423 142.045 157.87 142.238L157.189 143.743C157.304 143.793 157.418 143.845 157.531 143.897L158.254 142.41C158.702 142.618 159.136 142.848 159.554 143.096L158.687 144.507C158.794 144.571 158.901 144.636 159.005 144.703L159.911 143.315C160.327 143.579 160.727 143.862 161.109 144.162L160.07 145.456C160.168 145.532 160.265 145.611 160.36 145.69L161.435 144.426C161.812 144.74 162.171 145.072 162.511 145.42L161.318 146.573C161.404 146.662 161.49 146.752 161.574 146.843L162.8 145.722C163.132 146.082 163.445 146.457 163.737 146.847L163.737 146.847L162.405 147.842C162.479 147.941 162.552 148.041 162.623 148.142L163.982 147.186C164.263 147.585 164.523 147.999 164.761 148.425L163.315 149.241C163.375 149.349 163.433 149.458 163.49 149.567L164.959 148.793C165.185 149.226 165.387 149.671 165.566 150.126L164.027 150.747C164.072 150.862 164.116 150.978 164.157 151.094L165.713 150.517C165.878 150.977 166.018 151.446 166.134 151.922L164.529 152.334C164.558 152.453 164.585 152.575 164.61 152.695L166.226 152.331C166.326 152.808 166.402 153.292 166.451 153.782L166.451 153.783L164.808 153.975C164.82 154.098 164.83 154.221 164.838 154.345L166.485 154.203Z" stroke="url(#paint6_radial_1_14)" stroke-opacity="0.5" stroke-width="3.29143" stroke-dasharray="0.41 1.44"/>
<ellipse cx="11.3197" cy="10.982" rx="11.3197" ry="10.982" transform="matrix(0.985514 0.169593 -0.189398 0.9819 142.657 142.565)" fill="#323232"/>
<path d="M136.686 147.611C135.472 151.484 137.651 155.593 141.486 156.795C145.433 158.033 149.456 155.868 150.67 151.995C151.884 148.123 149.705 144.013 145.87 142.811C142.036 141.609 137.9 143.738 136.686 147.611Z" fill="white"/>
<path d="M166.71 143.995C166.889 144.238 167.004 144.532 167.006 144.838C167.008 145.145 166.9 145.436 166.698 145.654C166.497 145.872 166.216 146.003 165.91 146.026C165.604 146.048 165.302 145.957 165.046 145.797C165.046 145.797 165.046 145.797 165.046 145.797C164.451 145.433 163.841 145.09 163.228 144.772C157.701 141.958 151.681 140.695 146.218 141.28C140.759 141.839 135.943 144.744 132.454 149.979C132.06 150.564 131.697 151.127 131.33 151.76C131.179 152.02 130.955 152.243 130.674 152.366C130.394 152.489 130.084 152.505 129.804 152.407C129.524 152.308 129.291 152.102 129.15 151.83C129.008 151.559 128.971 151.245 129.017 150.947C129.017 150.947 129.017 150.947 129.017 150.947C129.148 150.163 129.296 149.436 129.505 148.664C131.033 141.816 137.772 135.382 145.484 134.782C153.075 133.973 160.355 137.133 165.199 142.214C165.735 142.782 166.244 143.38 166.71 143.995Z" fill="#323232"/>
<path d="M162.873 164.24C162.873 169.083 158.924 172.984 154.128 172.984C149.192 172.984 145.383 169.083 145.383 164.24C145.383 159.396 149.333 155.495 154.128 155.495C158.924 155.495 162.873 159.396 162.873 164.24Z" fill="white" fill-opacity="0.2"/>
<path d="M159.676 145.459C159.764 145.253 160.056 145.253 160.143 145.459C160.683 146.727 161.693 147.737 162.961 148.276C163.167 148.364 163.167 148.656 162.961 148.743C161.693 149.283 160.683 150.293 160.143 151.561C160.056 151.767 159.764 151.767 159.676 151.561C159.137 150.293 158.127 149.283 156.859 148.743C156.653 148.656 156.653 148.364 156.859 148.276C158.127 147.737 159.137 146.727 159.676 145.459Z" fill="white"/>
<path opacity="0.4" d="M168.396 119.383C168.877 119.568 169.327 119.861 169.643 120.277C169.958 120.692 170.112 121.19 170.07 121.685C170.027 122.181 169.791 122.645 169.409 123.001C169.028 123.357 168.534 123.568 168.029 123.669C168.029 123.669 168.029 123.669 168.029 123.669C167.467 123.78 166.938 123.873 166.39 123.946C165.179 124.113 163.967 124.182 162.783 124.16C154.452 123.858 146.535 125.601 138.133 128.019C137.598 128.165 137.07 128.307 136.53 128.451C136.128 128.558 135.695 128.528 135.316 128.346C134.937 128.163 134.644 127.845 134.501 127.457C134.358 127.069 134.374 126.638 134.544 126.253C134.714 125.868 135.025 125.565 135.4 125.385C135.4 125.385 135.4 125.385 135.4 125.385C135.903 125.145 136.398 124.909 136.902 124.672C144.627 120.849 153.805 117.947 162.89 118.315C164.179 118.339 165.48 118.521 166.732 118.853C167.299 119.001 167.836 119.177 168.396 119.383Z" fill="#323232"/>
<circle cx="19.6714" cy="19.6714" r="19.6714" transform="matrix(-1 0 0 1 229.707 135.449)" fill="white"/>
<path d="M229.472 149.078C231.221 150.045 236.949 148.746 239.975 146.846C240.714 146.382 240.372 145.481 239.516 145.422C235.936 145.177 230.385 144.388 224.078 140.917C225.152 141.399 226.976 142.216 224.064 140.909C220.294 139.218 214.896 136.796 223.464 140.642C223.464 140.642 221.477 143.605 224.699 144.829C227.921 146.053 229.472 149.078 229.472 149.078Z" fill="#323232"/>
<path d="M226.593 143.375C228.476 144.048 233.919 141.843 236.599 139.48C237.254 138.903 236.771 138.068 235.917 138.148C232.344 138.483 226.739 138.599 219.954 136.19C221.092 136.492 223.023 137.005 219.939 136.185C215.946 135.123 210.229 133.602 219.304 136.017C219.304 136.017 217.821 139.261 221.197 139.95C224.574 140.639 226.593 143.375 226.593 143.375Z" fill="#323232"/>
<ellipse cx="14.7453" cy="14.3054" rx="14.7453" ry="14.3054" transform="matrix(0.985514 0.169593 -0.189398 0.9819 196.349 138.718)" fill="#747474"/>
<path d="M222.923 154.2C222.956 154.686 222.963 155.177 222.943 155.672L221.295 155.639C221.29 155.762 221.284 155.886 221.275 156.01L222.921 156.092C222.887 156.578 222.827 157.067 222.74 157.558L221.115 157.303C221.104 157.364 221.092 157.426 221.081 157.487C221.069 157.549 221.057 157.61 221.044 157.671L222.659 157.973C222.558 158.461 222.432 158.938 222.282 159.404L220.711 158.934C220.673 159.053 220.633 159.171 220.591 159.287L222.146 159.806C221.979 160.275 221.79 160.732 221.577 161.176L220.089 160.496C220.035 160.608 219.98 160.72 219.923 160.831L221.388 161.558C221.16 162 220.907 162.427 220.636 162.84L219.26 161.963C219.191 162.068 219.12 162.171 219.049 162.273L220.397 163.192C220.111 163.6 219.805 163.992 219.479 164.367L218.238 163.311C218.156 163.406 218.072 163.499 217.987 163.592L219.195 164.684C218.858 165.051 218.502 165.399 218.129 165.729L217.044 164.516C216.95 164.6 216.854 164.682 216.758 164.763L217.806 166.008C217.425 166.327 217.027 166.627 216.615 166.907L215.7 165.561C215.596 165.632 215.491 165.701 215.384 165.769L216.259 167.143C215.84 167.411 215.407 167.657 214.963 167.883L214.233 166.427C214.121 166.484 214.007 166.54 213.893 166.594L214.578 168.071C214.13 168.283 213.671 168.474 213.201 168.642L212.667 167.102C212.548 167.144 212.429 167.186 212.308 167.225L212.798 168.78C212.327 168.934 211.848 169.065 211.361 169.173L211.031 167.575C210.908 167.602 210.784 167.627 210.66 167.651L210.944 169.26C210.46 169.353 209.969 169.424 209.472 169.47L209.35 167.838C209.225 167.849 209.099 167.859 208.973 167.867L209.048 169.502C208.558 169.533 208.063 169.542 207.565 169.526L207.651 167.888C207.526 167.884 207.4 167.878 207.274 167.871L207.141 169.505C206.653 169.476 206.162 169.423 205.67 169.345L205.96 167.727C205.898 167.717 205.835 167.706 205.773 167.696C205.711 167.685 205.649 167.674 205.587 167.663L205.253 169.274C204.763 169.182 204.284 169.068 203.816 168.933L204.304 167.36C204.183 167.325 204.063 167.288 203.944 167.25L203.413 168.811C202.94 168.661 202.48 168.488 202.033 168.294L202.715 166.79C202.6 166.741 202.486 166.69 202.374 166.637L201.65 168.123C201.202 167.915 200.768 167.686 200.35 167.437L201.217 166.026C201.11 165.962 201.004 165.898 200.899 165.832L199.993 167.217C199.577 166.954 199.177 166.672 198.795 166.371L199.833 165.079C199.736 165.002 199.639 164.923 199.544 164.843L198.469 166.107C198.092 165.793 197.733 165.462 197.392 165.114L198.587 163.961C198.501 163.872 198.415 163.782 198.331 163.691L197.104 164.81C196.772 164.45 196.458 164.076 196.166 163.686L197.5 162.692C197.426 162.592 197.352 162.493 197.281 162.391L195.922 163.346C195.641 162.947 195.38 162.533 195.142 162.108L196.59 161.293C196.53 161.185 196.472 161.076 196.415 160.966L194.944 161.74C194.719 161.306 194.516 160.862 194.337 160.407L195.877 159.787C195.832 159.672 195.789 159.557 195.747 159.441L194.19 160.015C194.025 159.556 193.886 159.087 193.771 158.61L195.376 158.2C195.347 158.08 195.32 157.96 195.295 157.839L193.678 158.201C193.578 157.724 193.502 157.24 193.453 156.749L195.097 156.559C195.085 156.436 195.074 156.313 195.066 156.19L193.418 156.33C193.385 155.844 193.378 155.353 193.398 154.858L195.047 154.892C195.052 154.768 195.059 154.645 195.067 154.522L193.42 154.437C193.454 153.952 193.514 153.463 193.601 152.972L195.227 153.229L195.261 153.044C195.273 152.983 195.286 152.921 195.298 152.86L193.681 152.557C193.783 152.069 193.909 151.591 194.059 151.125L195.632 151.597C195.67 151.478 195.709 151.36 195.751 151.243L194.195 150.725C194.324 150.361 194.467 150.005 194.624 149.657L194.763 149.354L196.253 150.036C196.307 149.923 196.363 149.811 196.42 149.7L194.953 148.973C195.182 148.53 195.433 148.102 195.705 147.689L197.083 148.568C197.152 148.464 197.222 148.359 197.294 148.257L195.945 147.337C196.231 146.93 196.536 146.537 196.862 146.163L198.104 147.221C198.187 147.126 198.27 147.032 198.355 146.94L197.146 145.845C197.483 145.479 197.839 145.13 198.211 144.8L199.299 146.014C199.393 145.931 199.488 145.848 199.585 145.767L198.535 144.522C198.916 144.202 199.314 143.902 199.726 143.622L200.642 144.969C200.746 144.899 200.852 144.829 200.958 144.761L200.083 143.387C200.486 143.129 200.903 142.89 201.331 142.671L201.379 142.646L202.109 144.103C202.222 144.046 202.336 143.99 202.45 143.936L201.762 142.459C202.211 142.247 202.671 142.056 203.14 141.888L203.674 143.429C203.793 143.386 203.913 143.345 204.033 143.306L203.544 141.75C204.014 141.596 204.494 141.464 204.981 141.356L205.312 142.956C205.435 142.929 205.558 142.903 205.682 142.879L205.397 141.27C205.882 141.177 206.373 141.107 206.87 141.061L206.992 142.694C207.117 142.682 207.243 142.672 207.369 142.663L207.293 141.028C207.783 140.996 208.278 140.988 208.777 141.005L208.69 142.643C208.816 142.647 208.942 142.653 209.068 142.661L209.199 141.025C209.688 141.054 210.179 141.107 210.671 141.185L210.381 142.804C210.444 142.814 210.506 142.824 210.569 142.835C210.631 142.845 210.693 142.857 210.755 142.869L211.088 141.257C211.577 141.348 212.057 141.462 212.525 141.597L212.038 143.172C212.159 143.207 212.279 143.243 212.398 143.281L212.929 141.719C213.401 141.87 213.861 142.042 214.308 142.235L213.627 143.74C213.741 143.79 213.856 143.842 213.969 143.894L214.692 142.407C215.14 142.615 215.573 142.845 215.992 143.093L215.125 144.504C215.232 144.568 215.338 144.633 215.443 144.7L216.349 143.312C216.765 143.576 217.164 143.859 217.547 144.159L216.508 145.453C216.606 145.53 216.703 145.608 216.798 145.687L217.873 144.424C218.25 144.737 218.609 145.069 218.949 145.417L217.755 146.57C217.842 146.659 217.927 146.749 218.011 146.84L219.238 145.719C219.57 146.079 219.883 146.454 220.174 146.844L220.174 146.845L218.843 147.839C218.917 147.938 218.989 148.038 219.06 148.139L220.419 147.183C220.7 147.582 220.961 147.996 221.198 148.422L219.752 149.238C219.813 149.346 219.871 149.455 219.928 149.564L221.397 148.79C221.622 149.223 221.825 149.668 222.004 150.123L220.465 150.745C220.51 150.859 220.554 150.975 220.595 151.091L222.151 150.515C222.316 150.974 222.456 151.443 222.571 151.919L220.967 152.331C220.996 152.451 221.023 152.572 221.048 152.693L222.663 152.329C222.763 152.805 222.84 153.289 222.889 153.779L222.888 153.78L221.246 153.972C221.258 154.095 221.267 154.218 221.276 154.342L222.923 154.2Z" stroke="url(#paint7_radial_1_14)" stroke-opacity="0.5" stroke-width="3.29143" stroke-dasharray="0.41 1.44"/>
<ellipse cx="11.3197" cy="10.982" rx="11.3197" ry="10.982" transform="matrix(0.985514 0.169593 -0.189398 0.9819 199.095 142.562)" fill="#323232"/>
<path d="M193.123 147.609C191.909 151.482 194.089 155.591 197.923 156.793C201.871 158.031 205.894 155.866 207.108 151.993C208.322 148.121 206.142 144.011 202.308 142.809C198.474 141.607 194.338 143.736 193.123 147.609Z" fill="white"/>
<path d="M219.313 164.237C219.313 169.08 215.363 172.982 210.568 172.982C205.631 172.982 201.823 169.08 201.823 164.237C201.823 159.393 205.772 155.492 210.568 155.492C215.363 155.492 219.313 159.393 219.313 164.237Z" fill="white" fill-opacity="0.2"/>
<path d="M216.116 145.457C216.204 145.251 216.496 145.251 216.583 145.457C217.123 146.725 218.132 147.735 219.401 148.274C219.607 148.362 219.607 148.654 219.401 148.741C218.132 149.281 217.123 150.291 216.583 151.559C216.496 151.765 216.204 151.765 216.116 151.559C215.577 150.291 214.567 149.281 213.299 148.741C213.093 148.654 213.093 148.362 213.299 148.274C214.567 147.735 215.577 146.725 216.116 145.457Z" fill="white"/>
<path d="M193.131 143.995C192.951 144.237 192.836 144.531 192.834 144.838C192.832 145.144 192.941 145.435 193.142 145.653C193.344 145.871 193.625 146.003 193.931 146.025C194.236 146.047 194.539 145.956 194.794 145.797C194.794 145.797 194.794 145.797 194.794 145.797C195.389 145.432 195.999 145.089 196.612 144.772C202.139 141.957 208.16 140.694 213.623 141.279C219.082 141.838 223.898 144.744 227.386 149.978C227.781 150.563 228.143 151.126 228.51 151.759C228.661 152.02 228.886 152.242 229.166 152.365C229.447 152.489 229.757 152.504 230.037 152.406C230.317 152.308 230.549 152.102 230.691 151.83C230.833 151.558 230.869 151.244 230.824 150.946C230.824 150.946 230.824 150.946 230.824 150.946C230.692 150.163 230.545 149.435 230.336 148.663C228.808 141.816 222.069 135.382 214.357 134.781C206.765 133.973 199.486 137.132 194.642 142.214C194.105 142.782 193.597 143.379 193.131 143.995Z" fill="#323232"/>
<path opacity="0.4" d="M191.442 119.383C190.962 119.568 190.511 119.861 190.196 120.277C189.881 120.692 189.726 121.19 189.769 121.685C189.811 122.181 190.048 122.645 190.429 123.001C190.811 123.357 191.305 123.568 191.81 123.669C191.81 123.669 191.81 123.669 191.81 123.669C192.371 123.78 192.9 123.873 193.448 123.946C194.66 124.113 195.871 124.182 197.056 124.16C205.387 123.858 213.304 125.601 221.706 128.019C222.24 128.165 222.769 128.307 223.309 128.451C223.71 128.558 224.144 128.528 224.523 128.346C224.902 128.163 225.194 127.845 225.337 127.457C225.48 127.069 225.464 126.638 225.294 126.253C225.125 125.868 224.814 125.565 224.439 125.385C224.439 125.385 224.439 125.385 224.439 125.385C223.935 125.145 223.441 124.909 222.937 124.672C215.212 120.849 206.034 117.947 196.948 118.315C195.66 118.339 194.359 118.521 193.107 118.853C192.54 119.001 192.003 119.177 191.442 119.383Z" fill="#323232"/>
<path fill-rule="evenodd" clip-rule="evenodd" d="M110.174 194.179L72.4552 203.106C70.3358 203.607 68.3779 201.815 68.6909 199.66L71.9002 177.586C73.4747 173.977 74.0328 171.348 73.8232 169.102C73.6765 167.531 73.1691 166.315 72.6632 165.298C72.1149 164.195 71.7385 163.606 71.351 162.634C70.8249 161.315 69.329 160.673 68.01 161.198C66.691 161.724 66.0476 163.22 66.5734 164.539C67.0592 165.757 67.7281 166.922 68.059 167.587C68.3463 168.165 68.5344 168.634 68.6346 169.128C68.6659 169.281 68.6929 169.419 68.7155 169.545C68.5365 169.267 68.3004 169.02 68.0108 168.821C66.4847 167.772 65.3132 166.631 64.4219 165.162C63.524 163.683 62.8263 161.733 62.4474 158.961C62.2551 157.554 60.9587 156.57 59.5515 156.764C58.1444 156.958 57.1596 158.255 57.3518 159.662C57.802 162.956 58.6796 165.617 60.0246 167.833C60.4587 168.548 60.9332 169.202 61.4424 169.806C61.2076 169.62 60.9793 169.414 60.7571 169.185C59.6522 168.045 58.4814 166.127 57.3432 162.605C56.9065 161.255 55.4568 160.515 54.1053 160.953C52.7537 161.391 52.012 162.841 52.4486 164.191C52.8132 165.319 53.1974 166.347 53.6013 167.286C52.764 166.542 51.5051 166.408 50.5131 167.041C49.3158 167.806 48.9628 169.395 49.7255 170.592C51.7636 173.788 53.9159 176.717 56.8329 178.804L49.6546 206.859C47.3639 215.813 54.6296 224.335 63.8326 223.489L110.173 219.228L110.174 194.179Z" fill="white"/>
</g>
<defs>
<linearGradient id="paint0_linear_1_14" x1="-127" y1="-67" x2="-127" y2="24" gradientUnits="userSpaceOnUse">
<stop stop-color="white"/>
<stop offset="1" stop-color="white" stop-opacity="0"/>
</linearGradient>
<linearGradient id="paint1_linear_1_14" x1="184.556" y1="97.8404" x2="253.845" y2="347.568" gradientUnits="userSpaceOnUse">
<stop stop-color="#E6E6E6"/>
<stop offset="1" stop-color="#B3B3B3"/>
</linearGradient>
<linearGradient id="paint2_linear_1_14" x1="179.927" y1="103.118" x2="243.449" y2="313.86" gradientUnits="userSpaceOnUse">
<stop stop-color="#B8E047"/>
<stop offset="1" stop-color="#91BE10"/>
</linearGradient>
<linearGradient id="paint3_linear_1_14" x1="179.934" y1="16.2582" x2="226.314" y2="179.868" gradientUnits="userSpaceOnUse">
<stop stop-color="#E6E6E6"/>
<stop offset="1" stop-color="#B3B3B3"/>
</linearGradient>
<linearGradient id="paint4_linear_1_14" x1="146.89" y1="65.1582" x2="155.675" y2="52.5584" gradientUnits="userSpaceOnUse">
<stop stop-color="white"/>
<stop offset="1" stop-color="white" stop-opacity="0"/>
</linearGradient>
<linearGradient id="paint5_linear_1_14" x1="130.472" y1="61.5988" x2="124.541" y2="215.899" gradientUnits="userSpaceOnUse">
<stop stop-color="white"/>
<stop offset="1" stop-color="white" stop-opacity="0"/>
</linearGradient>
<radialGradient id="paint6_radial_1_14" cx="0" cy="0" r="1" gradientUnits="userSpaceOnUse" gradientTransform="translate(153.087 160.345) rotate(-51.7227) scale(78.3917 106.541)">
<stop stop-color="#4A6109" stop-opacity="0"/>
<stop offset="1" stop-color="#4A6109"/>
</radialGradient>
<radialGradient id="paint7_radial_1_14" cx="0" cy="0" r="1" gradientUnits="userSpaceOnUse" gradientTransform="translate(209.525 160.342) rotate(-51.7227) scale(78.3917 106.541)">
<stop stop-color="#4A6109" stop-opacity="0"/>
<stop offset="1" stop-color="#4A6109"/>
</radialGradient>
<clipPath id="clip0_1_14">
<rect x="-460" y="-180" width="1280" height="800" rx="48" fill="white"/>
</clipPath>
</defs>
</svg>
