<svg width="400" height="800" viewBox="0 -99.75 400 800" fill="none" xmlns="http://www.w3.org/2000/svg">
<rect width="694.5" height="282" transform="translate(-107.25 69.2502)" fill="#FCEFE7"/>
<path d="M340.5 189.25C340.5 189.25 375.75 161.127 395.25 157.75C419.509 153.549 450 157.75 450 157.75C450 157.75 487.577 117.25 519.495 117.25C555.517 117.25 587.25 131.5 587.25 131.5V253.75H228.75C228.75 253.75 249.258 227.841 263.25 214.75C282.886 196.379 340.5 189.25 340.5 189.25Z" fill="#F4E4DE"/>
<path d="M133.635 232.674C114.933 224.995 84.2613 193.165 66.3072 188.148C46.8195 182.703 12.5075 178.56 12.5075 178.56C12.5075 178.56 -16.0886 144.25 -45.0682 144.25C-77.7733 144.25 -107.25 154.911 -107.25 154.911V255.25H186.75C186.75 255.25 169.544 240.442 163.559 237.691C157.575 234.94 138.77 234.782 133.635 232.674Z" fill="#F4E4DE"/>
<path d="M32.3147 252.627C-13.0989 253.905 -71.8052 228.341 -107.25 228.342V280.75H587.25V230.533C568.5 220 506.92 203.295 463.5 201.25C409.225 198.694 314.456 207.302 255.75 216.25C197.044 225.198 77.7284 251.35 32.3147 252.627Z" fill="#EDDBD6"/>
<path d="M91.0416 273.068C67.2444 273.066 -51.0683 277.369 -107.25 279.521V306.25C-77.6514 305.833 -12.125 303.746 13.1918 298.737C44.8378 292.476 236.612 297.485 260.031 293.728C283.449 289.972 387.247 297.485 419.526 302.494C445.349 306.501 542.102 300.824 587.25 297.485V273.068C560.667 271.399 507.75 267.068 482.818 267.068C452.656 267.068 344.25 267.929 301.803 273.068C270.79 276.822 120.788 273.069 91.0416 273.068Z" fill="#F4E4DE"/>
<mask id="mask0_9_6084" style="mask-type:alpha" maskUnits="userSpaceOnUse" x="-67" y="41" width="136" height="63">
<rect x="-66.75" y="41.7502" width="135.047" height="62.0918" fill="white"/>
</mask>
<g mask="url(#mask0_9_6084)">
<path d="M-51.3154 92.3598L51.7817 92.3598" stroke="white" stroke-width="23.3735" stroke-linecap="round"/>
<rect x="-15.2012" y="45.6466" width="64.8688" height="64.8688" rx="32.4344" fill="white"/>
<rect x="-20.0391" y="66.2766" width="31.1646" height="31.1646" rx="15.5823" fill="white"/>
</g>
<mask id="mask1_9_6084" style="mask-type:alpha" maskUnits="userSpaceOnUse" x="356" y="71" width="69" height="41">
<rect width="67.8212" height="39.6346" transform="matrix(-1 0 0 1 424.071 71.7502)" fill="white"/>
</mask>
<g mask="url(#mask1_9_6084)">
<path d="M414.219 104.056L364.042 104.055" stroke="white" stroke-width="14.9198" stroke-linecap="round"/>
<rect width="41.3937" height="41.3937" rx="20.6969" transform="matrix(-1 0 0 1 414.754 81.0565)" fill="white"/>
<rect width="24.1723" height="24.1723" rx="12.0861" transform="matrix(-1 0 0 1 386.287 87.2125)" fill="white"/>
<rect width="22.9604" height="22.9604" rx="11.4802" transform="matrix(-1 0 0 1 404.645 91.5675)" fill="white"/>
</g>
<mask id="mask2_9_6084" style="mask-type:alpha" maskUnits="userSpaceOnUse" x="152" y="-9" width="61" height="36">
<rect x="152.25" y="-8.24982" width="60.121" height="35.1346" fill="white"/>
</mask>
<g mask="url(#mask2_9_6084)">
<path d="M160.983 20.3877L201.829 20.3878" stroke="white" stroke-width="14.9198" stroke-linecap="round"/>
<rect x="160.51" width="36.694" height="36.694" rx="18.347" fill="white"/>
<rect x="185.405" y="6.62732" width="24.7645" height="24.7645" rx="12.3823" fill="white"/>
<rect x="169.471" y="9.3175" width="20.3536" height="20.3536" rx="10.1768" fill="white"/>
</g>
</svg>
