<svg width="400" height="800" viewBox="0 0 400 800" fill="none" xmlns="http://www.w3.org/2000/svg">
<rect x="-81" width="581" height="937" fill="#78D3F9"/>
<path opacity="0.2" d="M-50.7239 72.9807C-27.871 72.7588 -7.77631 81.1324 3.40605 93.85C5.34959 96.0604 8.81389 96.4847 11.4046 95.0879C28.0041 86.138 62.8298 88.5804 64.67 113.105C64.8615 115.656 66.6453 117.941 69.1701 118.356C93.4687 122.348 101.295 130.991 101.295 140.964C101.294 164.001 50.0574 161.052 24.8971 159.686C21.2757 159.489 19.0233 163.379 18.9198 167.004C18.4491 183.496 -19.5336 183.302 -45.8135 183.557C-91.7057 184.002 -149.105 178.04 -149.267 161.395C-149.336 154.287 -142.614 147.688 -131.314 142.425C-129.363 141.516 -128.213 139.477 -128.066 137.33C-127.503 129.124 -121.921 121.443 -115.283 116.653C-114.037 115.753 -113.204 114.384 -112.97 112.866C-109.563 90.7201 -83.0736 73.295 -50.7239 72.9807Z" fill="white"/>
<path opacity="0.2" d="M470.934 86.8629C437.249 86.5358 407.765 99.2984 392.164 118.462C390.306 120.744 386.864 121.156 384.365 119.6C361.247 105.2 307.121 108.163 306.209 146.069C306.148 148.627 304.339 150.904 301.81 151.292C265.632 156.843 254.054 169.364 254.054 183.852C254.056 217.8 332.048 212.194 366.471 210.377C370.092 210.186 372.438 214.034 371.829 217.61C367.237 244.557 424.715 244.237 463.929 244.618C529.401 245.253 611.291 236.747 611.522 213.001C611.622 202.566 601.467 192.901 584.494 185.29C582.531 184.409 581.369 182.371 581.339 180.219C581.166 167.582 572.447 155.639 562.185 148.567C560.92 147.695 560.084 146.321 559.885 144.798C555.697 112.714 517.588 87.3162 470.934 86.8629Z" fill="white"/>
<path fill-rule="evenodd" clip-rule="evenodd" d="M173.865 371.817C194.486 345.421 232.952 323.725 268.582 345.61C269.201 343.519 270.183 341.544 271.214 339.934C271.555 339.402 272.207 339.175 272.805 339.381C278.049 341.191 284.871 345.658 283.493 352.813C285.377 352.051 287.537 351.823 289.369 351.886C290.001 351.908 290.526 352.368 290.631 352.992C291.163 356.167 290.944 360.461 288.22 362.806C294.19 369.799 299.95 378.376 305.389 388.751C305.527 387.302 305.903 385.879 306.364 384.661C306.588 384.069 307.193 383.72 307.817 383.822C310.297 384.226 313.273 385.282 315.101 387.31C314.077 383.483 316.939 379.778 319.604 377.6C320.094 377.2 320.793 377.2 321.282 377.6C322.829 378.864 324.442 380.644 325.324 382.663C332.49 376.751 340.791 370.933 349.516 366.383C347.794 363.001 349.556 358.843 351.511 356.127C351.88 355.615 352.554 355.434 353.13 355.694C355.418 356.724 358.017 358.512 359.259 360.94C359.265 356.983 362.988 354.148 366.124 352.735C366.7 352.475 367.375 352.655 367.744 353.168C368.828 354.674 369.848 356.624 370.253 358.638C393.646 353.749 416.191 363.746 425.268 409.603C425.286 409.697 425.297 409.8 425.297 409.896V586.052C425.297 586.87 424.633 587.534 423.814 587.534H-220.519C-221.337 587.534 -222 586.87 -222 586.052V358.915C-222 358.343 -221.681 357.826 -221.162 357.583C-203.924 349.525 -180.319 341.401 -158.076 343.742C-154.78 340.773 -149.485 340.247 -145.509 340.634C-144.88 340.696 -144.38 341.173 -144.292 341.799C-144.214 342.353 -144.156 342.934 -144.116 343.532C-140.98 340.942 -136.255 340.204 -132.588 340.308C-131.956 340.326 -131.425 340.769 -131.294 341.387C-130.585 344.733 -130.434 349.113 -132.024 352.568C-123.228 358.176 -115.322 366.687 -108.976 379.019C-108.009 376.583 -105.461 374.844 -103.228 373.884C-102.647 373.635 -101.978 373.833 -101.626 374.358C-100.837 375.536 -100.104 376.995 -99.7305 378.516C-97.889 373.65 -92.0319 371.305 -87.5283 370.556C-86.905 370.453 -86.2991 370.785 -86.0518 371.367C-85.78 372.006 -85.5231 372.692 -85.293 373.41C-63.9793 365.397 -47.3259 370.531 -39.9727 387.898C-39.8697 382.423 -34.6608 378.351 -30.3818 376.329C-29.8104 376.059 -29.1371 376.214 -28.7402 376.705C-28.4357 377.083 -28.1319 377.484 -27.834 377.906C-23.5513 372.137 -18.1436 366.972 -11.9912 362.74C-13.6353 359.978 -14.3483 356.534 -14.5 353.684C-14.5336 353.053 -14.1359 352.487 -13.5303 352.306C-9.44249 351.084 -3.68065 350.597 0.152344 353.444C1.30141 352.003 2.62894 350.741 3.90332 349.738C4.39993 349.347 5.09123 349.347 5.58789 349.738C6.72545 350.633 7.90337 351.737 8.96094 352.988C25.2999 348.573 43.4048 350.55 58.96 362.616C59.7368 360.828 60.7686 359.177 61.8135 357.82C62.1992 357.319 62.8698 357.149 63.4473 357.407C67.507 359.215 72.4264 362.81 73.2002 367.771C75.8823 365.674 79.5136 364.585 82.5234 364.184C83.1499 364.101 83.7443 364.453 83.9727 365.042C84.4109 366.173 84.7986 367.444 85.0742 368.776C101.845 344.88 137.846 336.614 161.887 364.137C163.79 362.326 166.155 360.947 168.279 360.045C168.861 359.798 169.528 359.979 169.905 360.487C172.099 363.441 174.205 367.752 173.865 371.817ZM316.607 390.116C316.626 390.192 316.644 390.27 316.66 390.348C316.687 390.323 316.714 390.297 316.74 390.272C316.695 390.22 316.651 390.168 316.607 390.116Z" fill="#1C8D20"/>
<path d="M212.246 399.359C497.36 399.36 728.491 501.205 728.491 626.837C728.491 650.807 720.077 673.911 704.479 695.607V1011.15H-279.988V695.607C-295.585 673.911 -304 650.807 -304 626.837C-304 501.205 -72.8683 399.359 212.246 399.359Z" fill="#56A746"/>
<g filter="url(#filter0_d_9_16576)">
<path d="M419.752 620.573C448.616 603.735 405.888 596.01 397.707 612.61C391.03 592.274 362.682 602.719 377.388 616.146C355.586 604.285 335.963 631.098 368.405 629.528C343.322 641.383 367.691 658.717 387.967 639.302C393.294 662.153 424.391 648.58 413.395 634.663C446.898 640.333 446.555 617.481 419.752 620.573Z" fill="#B8E047"/>
</g>
<ellipse cx="395.505" cy="624.672" rx="11.5096" ry="4.90155" fill="#EBFFB4"/>
<path d="M71.3814 617.197C71.3814 617.197 71.3814 617.197 71.3814 617.197C71.4866 616.603 71.581 616.018 71.6657 615.421C72.5579 609.407 72.2485 603.308 73.3397 597.896C74.153 593.702 76.0403 589.881 79.0899 586.309C79.486 585.844 79.8556 585.413 80.279 584.954C80.279 584.954 80.279 584.954 80.279 584.954C79.7037 585.196 79.1787 585.431 78.6231 585.724C74.3514 587.821 70.7995 592.225 69.8954 597.186C68.6615 603.571 70.0369 609.526 71.0624 615.432C71.1693 616.022 71.2761 616.603 71.3814 617.197Z" fill="#1C8D20"/>
<path d="M80.7625 636.893C80.7625 636.893 80.7625 636.893 80.7625 636.893C80.8678 636.531 80.9714 636.166 81.0744 635.804C82.1153 632.144 83.1103 628.731 84.8433 626.114C86.167 624.089 87.9009 622.338 90.3997 620.712C90.7196 620.504 91.0298 620.304 91.3731 620.1C91.3731 620.1 91.3731 620.1 91.3731 620.1C90.9778 620.045 90.6028 620.004 90.2052 619.989C87.1545 619.796 83.7104 621.339 81.9078 624.177C79.5402 627.826 79.5859 632.106 80.4712 635.792C80.5597 636.162 80.6572 636.531 80.7625 636.893Z" fill="#1C8D20"/>
<path d="M335.696 474.954C336.017 475.374 336.313 475.8 336.589 476.235C339.365 480.672 340.028 485.595 340.666 490.597C341.131 494.487 341.641 498.481 342.571 502.538C342.689 503.051 342.814 503.57 342.946 504.083C343.078 503.57 343.203 503.051 343.32 502.536C344.234 498.484 344.653 494.347 344.158 490.177C343.546 484.906 341.486 479.117 337.029 475.822C336.599 475.504 336.155 475.216 335.696 474.954Z" fill="#1C8D20"/>
<path d="M358.293 461.123C358.069 461.46 357.865 461.79 357.664 462.128C355.619 465.547 354.904 468.964 354.386 472.608C353.984 475.431 353.501 478.4 352.571 481.43C352.453 481.817 352.328 482.199 352.196 482.586C352.064 482.199 351.939 481.817 351.822 481.429C350.91 478.405 350.456 475.293 350.905 472.109C351.41 468.05 353.662 463.789 357.236 461.703C357.583 461.49 357.93 461.302 358.293 461.123Z" fill="#1C8D20"/>
<path d="M31.1412 603.09C31.1412 603.09 31.1412 603.09 31.1412 603.09C31.9873 603.264 32.7586 603.466 33.5681 603.714C41.8446 606.054 46.4922 613.305 48.5531 621.025C50.2403 627.062 51.0887 633.457 51.8098 639.995C51.8998 640.824 51.9857 641.667 52.0693 642.498C52.2496 641.683 52.4133 640.848 52.558 640.02C53.6807 633.497 53.7757 626.66 51.9368 620.067C49.9208 611.658 42.6037 603.327 33.6784 603.121C32.8118 603.058 32.0044 603.055 31.1412 603.09Z" fill="#1C8D20"/>
<path d="M439.982 469.88C453.295 465.925 433.698 458.818 427.416 463.979C427.215 464.144 426.889 464.041 426.822 463.789C424.781 456.069 412.709 456.123 414.124 461.133C414.227 461.5 413.473 462.283 413.128 462.12C403.505 457.584 394.049 464.815 407.596 467.911C407.949 467.992 407.945 468.592 407.593 468.677C396.159 471.436 406.873 480.245 418.83 474.936C419.034 474.845 419.276 474.987 419.305 475.209C420.556 484.695 436.69 482.959 433.901 476.503C433.78 476.223 434.064 475.884 434.353 475.981C450.393 481.359 452.544 472.886 440.014 470.623C439.661 470.559 439.638 469.982 439.982 469.88Z" fill="#FFC280"/>
<g filter="url(#filter2_d_9_16576)">
<path d="M-8.61846 479.078C2.27374 470.36 -18.0385 470.23 -21.9916 477.577C-22.1195 477.815 -22.4809 477.834 -22.6296 477.609C-27.2398 470.63 -38.326 475.121 -34.9867 479.635C-34.7608 479.94 -35.202 480.887 -35.5796 480.846C-45.9666 479.711 -52.0774 490.348 -38.5435 488.546C-38.1885 488.499 -37.9833 489.044 -38.275 489.252C-47.8679 496.085 -35.0266 501.092 -25.995 491.568C-25.8352 491.4 -25.5445 491.449 -25.441 491.657C-20.9656 500.65 -6.85559 493.121 -11.7805 487.696C-11.9825 487.474 -11.8267 487.074 -11.5262 487.068C4.97968 486.717 3.93297 477.489 -8.31611 479.747C-8.66444 479.811 -8.89499 479.299 -8.61846 479.078Z" fill="#FFC280"/>
</g>
<g filter="url(#filter3_d_9_16576)">
<path d="M27.8167 516.341C49.3836 505.493 17.4579 500.517 11.3456 511.211C6.3564 498.11 -14.8241 504.839 -3.83609 513.489C-20.126 505.848 -34.7878 523.122 -10.5477 522.111C-29.2893 529.748 -11.0812 540.915 4.06792 528.407C8.04794 543.129 31.2832 534.384 23.0668 525.419C48.0998 529.071 47.8431 514.349 27.8167 516.341Z" fill="#B8E047"/>
</g>
<ellipse cx="9.70023" cy="518.981" rx="8.59965" ry="3.15781" fill="#EBFFB4"/>
<path d="M83.9551 226.006C88.6988 241.538 78.3772 255.754 68.5895 259.607C30.0548 229.768 55.603 226.237 61.1778 239.292C61.206 230.91 66.1509 224.696 71.4275 221.127C76.1574 217.928 82.2872 220.545 83.9551 226.006Z" fill="#F78A4E"/>
<path d="M45.6362 225.599C61.4515 228.761 69.5147 247.525 71.737 258.039C30.2276 282.24 30.8394 250.704 45.0313 250.988C37.4458 247.537 35.1614 240.746 35.0447 234.65C34.9353 228.941 40.0368 224.479 45.6362 225.599Z" fill="#F26A3D"/>
<defs>
<filter id="filter0_d_9_16576" x="351.238" y="601.202" width="89.5158" height="51.8655" filterUnits="userSpaceOnUse" color-interpolation-filters="sRGB">
<feFlood flood-opacity="0" result="BackgroundImageFix"/>
<feColorMatrix in="SourceAlpha" type="matrix" values="0 0 0 0 0 0 0 0 0 0 0 0 0 0 0 0 0 0 127 0" result="hardAlpha"/>
<feOffset dx="1.50943" dy="1.50943"/>
<feComposite in2="hardAlpha" operator="out"/>
<feColorMatrix type="matrix" values="0 0 0 0 0.109804 0 0 0 0 0.552941 0 0 0 0 0.12549 0 0 0 0.2 0"/>
<feBlend mode="multiply" in2="BackgroundImageFix" result="effect1_dropShadow_9_16576"/>
<feBlend mode="normal" in="SourceGraphic" in2="effect1_dropShadow_9_16576" result="shape"/>
</filter>
<filter id="filter2_d_9_16576" x="-46.3428" y="472.288" width="48.8176" height="26.9439" filterUnits="userSpaceOnUse" color-interpolation-filters="sRGB">
<feFlood flood-opacity="0" result="BackgroundImageFix"/>
<feColorMatrix in="SourceAlpha" type="matrix" values="0 0 0 0 0 0 0 0 0 0 0 0 0 0 0 0 0 0 127 0" result="hardAlpha"/>
<feOffset dx="1.59734" dy="2.39601"/>
<feComposite in2="hardAlpha" operator="out"/>
<feColorMatrix type="matrix" values="0 0 0 0 0.85098 0 0 0 0 0.443137 0 0 0 0 1 0 0 0 0.2 0"/>
<feBlend mode="multiply" in2="BackgroundImageFix" result="effect1_dropShadow_9_16576"/>
<feBlend mode="normal" in="SourceGraphic" in2="effect1_dropShadow_9_16576" result="shape"/>
</filter>
<filter id="filter3_d_9_16576" x="-23.3745" y="503.861" width="67.2653" height="33.9511" filterUnits="userSpaceOnUse" color-interpolation-filters="sRGB">
<feFlood flood-opacity="0" result="BackgroundImageFix"/>
<feColorMatrix in="SourceAlpha" type="matrix" values="0 0 0 0 0 0 0 0 0 0 0 0 0 0 0 0 0 0 127 0" result="hardAlpha"/>
<feOffset dx="1.50943" dy="1.50943"/>
<feComposite in2="hardAlpha" operator="out"/>
<feColorMatrix type="matrix" values="0 0 0 0 0.109804 0 0 0 0 0.552941 0 0 0 0 0.12549 0 0 0 0.2 0"/>
<feBlend mode="multiply" in2="BackgroundImageFix" result="effect1_dropShadow_9_16576"/>
<feBlend mode="normal" in="SourceGraphic" in2="effect1_dropShadow_9_16576" result="shape"/>
</filter>
</defs>
</svg>
