<svg width="400" height="800" viewBox="0 0 400 800" fill="none" xmlns="http://www.w3.org/2000/svg">
<rect x="-81" width="581" height="937" fill="#FF9F3F"/>
<path opacity="0.6" d="M-50.7239 72.9807C-27.871 72.7588 -7.77631 81.1324 3.40605 93.85C5.34959 96.0604 8.81389 96.4847 11.4046 95.0879C28.0041 86.138 62.8298 88.5804 64.67 113.105C64.8615 115.656 66.6453 117.941 69.1701 118.356C93.4687 122.348 101.295 130.991 101.295 140.964C101.294 164.001 50.0574 161.052 24.8971 159.686C21.2757 159.489 19.0233 163.379 18.9198 167.004C18.4491 183.496 -19.5336 183.302 -45.8135 183.557C-91.7057 184.002 -149.105 178.04 -149.267 161.395C-149.336 154.287 -142.614 147.688 -131.314 142.425C-129.363 141.516 -128.213 139.477 -128.066 137.33C-127.503 129.124 -121.921 121.443 -115.283 116.653C-114.037 115.753 -113.204 114.384 -112.97 112.866C-109.563 90.7201 -83.0736 73.295 -50.7239 72.9807Z" fill="#FFB061"/>
<path opacity="0.6" d="M470.934 86.8629C437.249 86.5358 407.765 99.2984 392.164 118.462C390.306 120.744 386.864 121.156 384.365 119.6C361.247 105.2 307.121 108.163 306.209 146.069C306.148 148.627 304.339 150.904 301.81 151.292C265.632 156.843 254.054 169.364 254.054 183.852C254.056 217.8 332.048 212.194 366.471 210.377C370.092 210.186 372.438 214.034 371.829 217.61C367.237 244.557 424.715 244.237 463.929 244.618C529.401 245.253 611.291 236.747 611.522 213.001C611.622 202.566 601.467 192.901 584.494 185.29C582.531 184.409 581.369 182.371 581.339 180.219C581.166 167.582 572.447 155.639 562.185 148.567C560.92 147.695 560.084 146.321 559.885 144.798C555.697 112.714 517.588 87.3162 470.934 86.8629Z" fill="#FFB061"/>
<path d="M202.491 404.192C38.5793 404.192 -111.301 438.14 -226.336 494.273V1090H607.285V483.094C495.76 433.665 355.216 404.192 202.491 404.192Z" fill="#FFB061"/>
<path d="M90.7712 618.221C90.8547 617.749 90.9296 617.285 90.9968 616.811C91.7049 612.038 91.4594 607.198 92.3254 602.902C92.9709 599.573 94.4689 596.54 96.8892 593.705C97.2036 593.336 97.497 592.994 97.833 592.63C97.3764 592.822 96.9597 593.009 96.5188 593.241C93.1284 594.905 90.3093 598.4 89.5918 602.338C88.6124 607.406 89.7041 612.132 90.518 616.82C90.6029 617.288 90.6876 617.749 90.7712 618.221Z" fill="#FFC280"/>
<path d="M98.2164 633.853C98.3 633.566 98.3823 633.276 98.464 632.989C99.2901 630.084 100.08 627.375 101.455 625.298C102.506 623.691 103.882 622.301 105.865 621.01C106.119 620.846 106.365 620.687 106.638 620.525C106.638 620.525 106.638 620.525 106.638 620.525C106.324 620.481 106.027 620.448 105.711 620.437C103.29 620.284 100.556 621.508 99.1255 623.761C97.2463 626.657 97.2826 630.054 97.9852 632.979C98.0555 633.273 98.1329 633.566 98.2164 633.853Z" fill="#FFC280"/>
<path d="M267.13 592.098C267.385 592.431 267.619 592.769 267.839 593.114C270.042 596.636 270.569 600.543 271.075 604.513C271.443 607.601 271.848 610.771 272.587 613.99C272.68 614.398 272.779 614.809 272.884 615.217C272.884 615.217 272.884 615.217 272.884 615.217C272.989 614.809 273.088 614.398 273.181 613.989C273.906 610.773 274.239 607.49 273.846 604.18C273.36 599.996 271.725 595.402 268.188 592.787C267.847 592.534 267.495 592.305 267.13 592.098Z" fill="#FFC280"/>
<path d="M285.063 581.122C284.885 581.389 284.723 581.651 284.564 581.92C282.941 584.633 282.373 587.345 281.962 590.238C281.643 592.478 281.26 594.834 280.522 597.239C280.428 597.547 280.329 597.849 280.224 598.157C280.119 597.849 280.02 597.547 279.928 597.238C279.203 594.838 278.843 592.369 279.199 589.841C279.6 586.62 281.388 583.237 284.224 581.582C284.499 581.413 284.775 581.264 285.063 581.122Z" fill="#FFC280"/>
<path d="M58.8334 607.025C59.5049 607.164 60.1171 607.324 60.7596 607.52C67.3284 609.378 71.0172 615.133 72.6529 621.26C73.9919 626.051 74.6653 631.127 75.2377 636.317C75.3091 636.974 75.3772 637.644 75.4436 638.303C75.5867 637.656 75.7166 636.993 75.8315 636.336C76.7226 631.159 76.798 625.732 75.3385 620.5C73.7384 613.826 67.9309 607.213 60.8472 607.05C60.1593 607 59.5185 606.997 58.8334 607.025Z" fill="#FFC280"/>
<path d="M439.982 469.88C453.295 465.925 433.698 458.818 427.416 463.979C427.215 464.144 426.889 464.041 426.822 463.789C424.781 456.069 412.709 456.123 414.124 461.133C414.227 461.5 413.473 462.283 413.128 462.12C403.505 457.584 394.049 464.815 407.596 467.911C407.949 467.992 407.945 468.592 407.593 468.677C396.159 471.436 406.873 480.245 418.83 474.936C419.034 474.845 419.276 474.987 419.305 475.209C420.556 484.695 436.69 482.959 433.901 476.503C433.78 476.223 434.064 475.884 434.353 475.981C450.393 481.359 452.544 472.886 440.014 470.623C439.661 470.559 439.638 469.982 439.982 469.88Z" fill="#FFC280"/>
<g filter="url(#filter1_d_9_16066)">
<path d="M-8.61846 479.078C2.27374 470.36 -18.0385 470.23 -21.9916 477.577C-22.1195 477.815 -22.4809 477.834 -22.6296 477.609C-27.2398 470.63 -38.326 475.121 -34.9867 479.635C-34.7608 479.94 -35.202 480.887 -35.5796 480.846C-45.9666 479.711 -52.0774 490.348 -38.5435 488.546C-38.1885 488.499 -37.9833 489.044 -38.275 489.252C-47.8679 496.085 -35.0266 501.092 -25.995 491.568C-25.8352 491.4 -25.5445 491.449 -25.441 491.657C-20.9656 500.65 -6.85559 493.121 -11.7805 487.696C-11.9825 487.474 -11.8267 487.074 -11.5262 487.068C4.97968 486.717 3.93297 477.489 -8.31611 479.747C-8.66444 479.811 -8.89499 479.299 -8.61846 479.078Z" fill="#FFC280"/>
</g>
<g filter="url(#filter2_d_9_16066)">
<path d="M23.5875 520.6C42.0604 504.94 9.75238 503.932 4.63564 517.125C4.55803 517.325 4.26413 517.339 4.16136 517.151C-3.32024 503.433 -22.2157 513.137 -12.6736 521.624C-12.4621 521.812 -12.7088 522.316 -12.9824 522.244C-30.104 517.729 -40.6334 538.527 -17.7938 534.618C-17.5354 534.574 -17.3752 534.94 -17.5874 535.093C-33.9687 546.959 -13.732 556.921 -0.345898 540.112C-0.23026 539.967 0.0105479 540.004 0.0827692 540.175C7.02193 556.606 28.8252 543.149 19.7881 533.605C19.6372 533.446 19.7563 533.163 19.9757 533.165C45.7646 533.394 43.2931 516.475 23.8005 521.067C23.548 521.126 23.3896 520.768 23.5875 520.6Z" fill="#FFC280"/>
</g>
<g filter="url(#filter3_d_9_16066)">
<ellipse cx="4.12362" cy="527.407" rx="9.13493" ry="3.89025" transform="rotate(-8.48529 4.12362 527.407)" fill="#F99253"/>
</g>
<path d="M83.9551 226.006C88.6988 241.538 78.3772 255.754 68.5895 259.607C30.0548 229.768 55.603 226.237 61.1778 239.292C61.206 230.91 66.1509 224.696 71.4275 221.127C76.1574 217.928 82.2872 220.545 83.9551 226.006Z" fill="#F78A4E"/>
<path d="M45.6362 225.599C61.4515 228.761 69.5147 247.525 71.737 258.039C30.2276 282.24 30.8394 250.704 45.0313 250.988C37.4458 247.537 35.1614 240.746 35.0447 234.65C34.9353 228.941 40.0368 224.479 45.6362 225.599Z" fill="#F26A3D"/>
<path d="M399.738 505.34C404.52 496.941 396.498 480.593 390.932 472.374C389.28 469.935 385.938 470.056 384.195 472.431C372.118 488.884 372.471 497.406 376.917 505.774L385.336 518.988C413.246 542.752 423.828 509.475 400.353 506.593C399.783 506.523 399.454 505.839 399.738 505.34Z" fill="#F57844"/>
<path d="M366.924 526.248C357.292 527.034 345.863 512.858 340.764 504.34C339.251 501.813 340.772 498.835 343.661 498.258C363.676 494.262 371.251 498.181 376.958 505.746L385.378 518.959C395.128 554.295 360.496 549.829 367.8 527.335C367.978 526.788 367.497 526.201 366.924 526.248Z" fill="#F26A3D"/>
<defs>
<filter id="filter1_d_9_16066" x="-46.3428" y="472.288" width="48.8176" height="26.9439" filterUnits="userSpaceOnUse" color-interpolation-filters="sRGB">
<feFlood flood-opacity="0" result="BackgroundImageFix"/>
<feColorMatrix in="SourceAlpha" type="matrix" values="0 0 0 0 0 0 0 0 0 0 0 0 0 0 0 0 0 0 127 0" result="hardAlpha"/>
<feOffset dx="1.59734" dy="2.39601"/>
<feComposite in2="hardAlpha" operator="out"/>
<feColorMatrix type="matrix" values="0 0 0 0 0.85098 0 0 0 0 0.443137 0 0 0 0 1 0 0 0 0.2 0"/>
<feBlend mode="multiply" in2="BackgroundImageFix" result="effect1_dropShadow_9_16066"/>
<feBlend mode="normal" in="SourceGraphic" in2="effect1_dropShadow_9_16066" result="shape"/>
</filter>
<filter id="filter2_d_9_16066" x="-30.9038" y="507.977" width="70.9744" height="42.8617" filterUnits="userSpaceOnUse" color-interpolation-filters="sRGB">
<feFlood flood-opacity="0" result="BackgroundImageFix"/>
<feColorMatrix in="SourceAlpha" type="matrix" values="0 0 0 0 0 0 0 0 0 0 0 0 0 0 0 0 0 0 127 0" result="hardAlpha"/>
<feOffset dx="1.19801" dy="1.79701"/>
<feComposite in2="hardAlpha" operator="out"/>
<feColorMatrix type="matrix" values="0 0 0 0 0.85098 0 0 0 0 0.443137 0 0 0 0 1 0 0 0 0.2 0"/>
<feBlend mode="multiply" in2="BackgroundImageFix" result="effect1_dropShadow_9_16066"/>
<feBlend mode="normal" in="SourceGraphic" in2="effect1_dropShadow_9_16066" result="shape"/>
</filter>
<filter id="filter3_d_9_16066" x="-4.92969" y="523.329" width="18.7059" height="8.75513" filterUnits="userSpaceOnUse" color-interpolation-filters="sRGB">
<feFlood flood-opacity="0" result="BackgroundImageFix"/>
<feColorMatrix in="SourceAlpha" type="matrix" values="0 0 0 0 0 0 0 0 0 0 0 0 0 0 0 0 0 0 127 0" result="hardAlpha"/>
<feOffset dx="0.599003" dy="0.599003"/>
<feComposite in2="hardAlpha" operator="out"/>
<feColorMatrix type="matrix" values="0 0 0 0 0.85098 0 0 0 0 0.443137 0 0 0 0 1 0 0 0 0.2 0"/>
<feBlend mode="multiply" in2="BackgroundImageFix" result="effect1_dropShadow_9_16066"/>
<feBlend mode="normal" in="SourceGraphic" in2="effect1_dropShadow_9_16066" result="shape"/>
</filter>
</defs>
</svg>
