<svg preserveAspectRatio="none" width="100%" height="100%" overflow="visible" style="display: block;" viewBox="0 0 16 16" fill="none" xmlns="http://www.w3.org/2000/svg">
<path id="Vector" d="M0.152184 14.2053C1.19544 14.1439 3.03511 13.8818 4.93999 13.0154C7.95099 11.6461 9.50656 9.64882 9.52985 9.66771C9.60437 9.72673 8.52851 11.2943 6.50487 12.6754C5.05642 13.6623 3.8292 14.1746 2.588 14.5523C1.80789 14.7884 3.00717 14.3658 4.12727 15.1638C4.89574 15.7115 4.92834 16.3064 4.95862 15.8201C4.97259 15.5958 4.96327 15.2747 4.94232 15.0339C5.65024 15.237 6.66089 15.4258 7.92538 15.2842C9.30397 15.1284 10.5754 14.609 11.7049 13.7496C12.1007 13.4474 11.7514 13.5372 11.5488 13.5773C11.0551 13.6741 10.1516 13.7732 9.14794 13.5301C9.8256 13.5301 14.2082 13.209 15.5449 9.30886C16.9654 5.15611 15.0233 0 10.2424 0C5.45929 0 4.81424 7.20298 4.89807 8.53686C4.65589 7.8168 4.55575 6.75677 4.72109 5.8384C4.78396 5.49135 4.8678 5.09473 4.44397 5.60468C3.63126 6.58443 2.56472 8.47548 2.87443 11.0181C2.49718 10.7018 2.15719 10.4822 1.84049 10.3169C1.4842 10.1304 1.33051 10.0573 1.72871 10.5625C2.04309 10.9615 2.42499 11.8728 1.94528 12.8218C1.57735 13.549 0.943941 13.9078 0.268619 13.9834C-0.0527416 14.0117 -0.0783573 14.2194 0.152184 14.2053Z" fill="var(--fill-0, #FF5A7D)"/>
</svg>
